<svg version="1.1" id="Layer_1" xmlns="http://www.w3.org/2000/svg" xmlns:xlink="http://www.w3.org/1999/xlink" x="0px" y="0px"
	 width="100%" viewBox="0 0 1024 544" enable-background="new 0 0 1024 544" xml:space="preserve">
<path fill="#000000" opacity="1.000000" stroke="none" 
	d="
M182.542084,337.516663 
	C184.150970,337.297241 184.988113,336.499115 185.504211,335.402161 
	C189.958481,325.934967 194.387634,316.455994 198.732910,307.175629 
	C197.760559,305.908783 196.830643,306.193787 196.252380,306.655273 
	C189.668930,311.909607 183.060776,317.194214 180.173676,325.556763 
	C179.429642,327.711914 178.334549,329.151764 175.991119,329.041138 
	C174.152191,328.954376 172.891891,327.888794 172.582108,325.976196 
	C172.286819,324.153229 172.793228,322.035614 174.563766,321.915344 
	C180.659439,321.501190 182.704071,316.227356 186.299271,312.821716 
	C187.132935,312.032013 187.853363,311.122742 189.641663,309.145294 
	C180.926010,312.742615 173.504211,315.809143 166.079269,318.868103 
	C164.422577,319.550598 163.603943,320.814056 162.911850,322.462463 
	C161.981110,324.679260 160.056854,325.789917 157.613876,324.964172 
	C155.906876,324.387207 154.849182,322.987549 155.063019,321.108459 
	C155.333771,318.729034 157.026184,317.996063 159.229248,317.594604 
	C165.650635,316.424438 168.744705,310.716858 173.131943,306.855133 
	C179.216263,301.499542 184.839096,295.621155 190.706940,290.016266 
	C191.416718,289.338287 192.420868,288.968445 194.084137,287.985840 
	C185.456085,283.164764 177.452118,280.494781 169.755005,277.166870 
	C168.474960,276.613434 167.598969,277.609497 166.616135,278.223083 
	C164.110779,279.787170 161.508453,279.992401 159.274628,277.879974 
	C157.366776,276.075775 157.137283,273.704315 158.536804,271.483765 
	C160.225922,268.803772 163.105301,268.235809 165.572647,269.522705 
	C168.471649,271.034729 170.616364,270.142120 173.020004,268.855988 
	C179.452240,265.414215 185.909073,262.018402 193.402161,258.050354 
	C187.214279,252.621078 181.700958,247.694077 176.049393,242.931091 
	C175.288010,242.289429 173.795914,242.187515 172.701218,242.320740 
	C164.471756,243.322327 155.783905,239.924591 147.939926,245.036285 
	C146.470261,245.994019 144.711502,245.063782 143.687836,243.432251 
	C142.772644,241.973557 142.928894,240.555328 143.925476,239.249832 
	C145.092575,237.720932 146.831726,237.295349 148.406952,238.106155 
	C155.902145,241.964233 163.732010,238.732071 171.575851,239.432327 
	C166.584167,235.236588 163.667999,228.563583 156.009720,228.314865 
	C154.185562,228.255600 153.071609,226.849838 152.806458,224.993408 
	C152.573364,223.361404 153.144989,221.979935 154.557617,221.139786 
	C156.146317,220.194901 158.309601,220.083557 159.069870,221.645065 
	C161.730652,227.109970 167.283890,227.389023 171.887344,229.322678 
	C175.966980,231.036316 180.174698,232.445023 184.886780,234.196869 
	C184.676483,230.475006 182.963577,229.529129 180.378922,229.315842 
	C178.077682,229.125946 176.660339,227.921677 176.793701,225.428329 
	C176.897995,223.478302 178.045258,222.255341 179.903381,222.123032 
	C182.219589,221.958115 183.568069,223.388657 184.184830,225.536301 
	C185.944809,231.664886 189.758316,235.827316 196.780014,238.547607 
	C192.431335,228.495819 187.493759,219.941727 182.601334,211.378769 
	C182.036407,210.389969 180.438919,209.968597 179.288651,209.341965 
	C177.484222,208.359009 176.509079,206.931213 176.972549,204.849289 
	C177.321045,203.283783 178.267883,202.135712 179.949341,201.864517 
	C181.796753,201.566559 183.574051,202.230438 184.113892,203.898148 
	C185.339752,207.685165 188.745636,208.473251 191.645157,209.889481 
	C204.343109,216.091599 217.095047,222.183182 230.152328,228.471359 
	C232.404175,222.999542 237.148331,220.639008 241.293610,217.741562 
	C262.594543,202.852783 284.039154,188.169250 305.306427,173.232956 
	C308.686646,170.859009 311.177948,170.899948 314.661072,173.048309 
	C337.061676,186.864822 359.652496,200.373108 382.045532,214.201752 
	C385.526703,216.351532 388.052490,216.334152 391.462433,214.180267 
	C417.234772,197.901031 444.509064,184.887787 474.068237,176.999878 
	C484.374573,174.249634 494.836700,172.275391 505.431274,171.019852 
	C506.256287,170.922089 507.097870,170.850311 507.923950,170.898972 
	C509.542633,170.994354 511.707367,170.641846 512.126648,172.681686 
	C512.608765,175.027344 510.502289,175.705093 508.690186,176.130707 
	C498.165100,178.602783 487.525238,180.515015 477.162537,183.756332 
	C449.925751,192.275604 424.713074,204.917496 400.856018,220.421280 
	C400.023499,220.962296 399.259308,221.623657 398.528687,222.299591 
	C398.178589,222.623459 397.981628,223.112808 398.053833,223.000427 
	C403.265411,228.579956 408.298309,234.071442 413.446869,239.452255 
	C419.011414,245.267822 423.629517,251.738480 427.612000,258.721863 
	C429.027893,261.204651 428.890533,263.174316 427.526733,265.651031 
	C420.119904,279.101898 410.471283,290.646637 398.670044,300.433289 
	C397.150208,301.693695 395.426086,302.792847 394.623383,304.737671 
	C394.752808,306.524933 396.215027,307.231934 397.375458,308.092407 
	C424.325043,328.075867 452.084747,346.696533 483.296936,359.596375 
	C485.749725,360.610107 490.506256,361.205627 489.157593,364.907318 
	C487.823395,368.569458 483.910889,366.155182 481.235535,365.272217 
	C461.002075,358.594391 442.597412,348.239838 424.556671,337.105560 
	C391.172119,316.501282 360.511749,292.117126 329.167542,268.678864 
	C327.985443,267.794922 326.612122,267.050751 326.169739,265.354614 
	C326.910431,262.830200 329.115631,261.479950 330.984436,259.880920 
	C345.418274,247.530884 360.136566,235.532700 375.447174,224.278824 
	C378.166199,222.280212 379.896576,220.298721 375.982971,217.933090 
	C355.882874,205.783249 335.755127,193.679123 315.621552,181.584839 
	C315.089813,181.265427 314.381226,181.240448 313.799957,181.089783 
	C312.050140,182.835831 312.449341,184.933929 312.428314,186.865219 
	C312.343048,194.696411 312.492645,202.532730 312.262543,210.358551 
	C312.165985,213.642731 313.433563,215.471176 316.184509,217.113373 
	C326.481140,223.260040 336.649261,229.622955 346.829865,235.962097 
	C348.330658,236.896606 350.211853,237.522827 350.823486,239.751328 
	C348.779938,242.933929 346.308197,241.454651 344.048492,240.108429 
	C334.030151,234.139969 323.951447,228.260040 314.133270,221.975143 
	C310.467102,219.628311 307.891052,219.779861 304.370239,222.290298 
	C294.337677,229.443756 284.050873,236.246490 273.751617,243.016144 
	C271.103546,244.756683 269.886749,246.697174 269.942169,249.931122 
	C270.147705,261.925842 270.206451,273.925262 270.117004,285.921417 
	C270.092804,289.168121 271.296448,291.069916 274.069336,292.690735 
	C284.709290,298.909973 295.281250,305.251526 305.744446,311.763000 
	C308.424591,313.430908 310.414032,313.380035 312.926788,311.596283 
	C322.842163,304.557404 332.979248,297.825531 342.782501,290.636688 
	C346.395630,287.987122 349.114685,287.372742 352.911591,290.310760 
	C361.071777,296.625031 369.564728,302.508545 377.898743,308.599457 
	C379.087646,309.468414 380.367432,310.337555 380.730103,312.484985 
	C374.451172,318.078064 366.999176,322.467194 359.964172,327.367859 
	C345.205231,337.649109 330.111908,347.451080 315.376282,357.764709 
	C311.454285,360.509766 308.652924,360.346771 304.718384,357.829315 
	C282.128326,343.375702 259.350189,329.216278 236.670441,314.902313 
	C234.337936,313.430145 232.468109,313.096191 229.861420,314.690430 
	C217.075317,322.510193 204.130295,330.069824 191.266495,337.763275 
	C189.602310,338.758606 187.614395,339.483765 187.285004,341.890747 
	C186.929886,344.485931 185.200272,345.592804 182.706146,345.467926 
	C180.803787,345.372681 179.600784,344.131958 179.194351,342.398895 
	C178.609116,339.903503 179.644043,338.197601 182.542084,337.516663 
M187.161636,302.607269 
	C184.020157,307.033112 178.449844,308.458008 174.366486,312.826508 
	C181.873734,309.711243 188.693909,306.612946 195.631912,304.138672 
	C202.005402,301.865784 203.108231,297.181824 204.947876,292.182068 
	C199.413910,294.197235 195.573868,299.052429 190.167725,299.647034 
	C193.081772,295.989655 197.607941,294.268066 201.134781,290.833008 
	C199.151978,289.340759 196.916763,287.578033 195.226562,289.141663 
	C190.721619,293.309235 186.735153,298.037201 182.579865,302.502350 
	C182.799438,302.575928 183.130264,302.811127 183.404831,302.757629 
	C184.699081,302.505402 185.977936,302.174072 187.161636,302.607269 
M228.512726,288.013336 
	C223.990463,287.400421 223.736771,291.963501 221.043808,293.693146 
	C222.286697,294.873932 223.580597,293.203827 224.519730,294.395081 
	C224.952988,295.953339 222.641632,295.455719 222.660492,296.756531 
	C223.380722,297.704956 225.291443,297.678375 224.868378,300.333160 
	C218.225189,295.194275 215.464996,299.699768 212.932938,304.835083 
	C212.658264,305.392181 211.914124,305.697113 211.517899,306.217987 
	C204.321304,315.678436 197.144714,325.154114 189.963852,334.626495 
	C203.793777,327.602264 216.903015,319.869476 230.021500,312.152374 
	C231.735260,311.144287 232.952774,309.801849 232.547195,307.721344 
	C231.346817,301.563904 232.976715,295.033783 230.671783,288.709839 
	C232.355484,286.335632 231.737518,283.871887 231.298569,280.882416 
	C228.267441,283.046478 227.798691,285.307465 228.512726,288.013336 
M399.837921,286.324921 
	C406.047302,280.245941 411.549988,273.603851 416.194519,266.237946 
	C417.903625,263.527435 418.093384,261.160095 416.170654,258.445312 
	C411.146667,251.351715 405.591888,244.745407 399.021545,239.038467 
	C397.833160,238.006287 396.708588,236.541168 393.603302,237.367584 
	C400.288452,254.832016 400.659088,272.482941 393.030121,290.251495 
	C396.367371,289.930603 397.586609,287.934631 399.837921,286.324921 
M218.253174,225.341141 
	C213.744995,223.200226 209.297745,220.916611 204.711304,218.959045 
	C200.243439,217.052094 196.178864,213.874176 190.959457,213.154480 
	C190.833664,215.775543 192.083511,216.539368 192.923538,217.500229 
	C200.640900,226.327713 208.440475,235.083984 216.093491,243.966629 
	C217.893387,246.055725 219.653870,245.943787 221.845383,244.983017 
	C222.687698,244.613724 223.596298,243.886780 224.297333,244.339447 
	C225.568069,245.997040 222.518570,245.956879 223.565613,247.423233 
	C230.445694,248.149628 229.619080,248.007004 230.734802,241.540802 
	C232.151062,233.332672 229.274628,228.968185 221.619629,226.969360 
	C220.673782,226.722382 219.823837,226.108185 218.253174,225.341141 
M197.855209,273.508759 
	C193.438690,274.064209 189.020447,274.656281 184.646591,273.015289 
	C191.785950,270.915497 199.315338,272.513580 206.878220,270.345337 
	C202.806000,266.442719 199.269073,262.768463 195.463348,260.205414 
	C188.622955,266.661224 179.106247,267.369141 171.928909,272.552368 
	C174.052002,272.864075 176.269363,272.120789 178.295242,273.436188 
	C176.776031,275.016388 174.539520,274.423523 172.629303,275.558228 
	C173.581177,275.995056 174.320297,276.329987 175.055908,276.672485 
	C180.895508,279.391418 188.254623,278.661896 192.742355,284.566345 
	C193.281219,285.275330 194.832870,285.639984 195.909454,284.552979 
	C199.433258,280.995087 202.971649,277.451660 206.954636,273.450378 
	C203.711258,273.450378 201.227142,273.450378 197.855209,273.508759 
M209.931168,245.580597 
	C207.639008,244.762756 205.346832,243.944916 202.870941,243.061523 
	C203.335861,247.706528 207.081512,249.842758 208.754791,253.126251 
	C210.447952,256.448792 213.101700,258.011414 215.948227,259.769287 
	C219.194397,261.774017 220.919983,259.609192 222.556976,257.498230 
	C224.682617,254.757111 222.394287,252.986938 220.549484,251.850281 
	C218.339798,250.488785 215.859604,248.763611 212.932877,250.466125 
	C212.856461,250.510574 212.534973,250.133759 212.186920,249.830811 
	C213.062332,249.166153 213.903809,248.527267 215.090927,247.625961 
	C213.307236,246.929123 211.943649,246.396408 209.931168,245.580597 
M204.871933,302.360413 
	C199.266205,308.783051 197.038376,316.846741 194.414169,324.802948 
	C200.837234,316.219666 207.260284,307.636353 214.429764,298.055603 
	C210.655441,299.741180 208.090256,300.886780 204.871933,302.360413 
M211.438507,292.224487 
	C215.469238,295.362152 218.598999,294.889343 220.766510,290.006500 
	C221.149643,289.143372 221.941391,288.435974 222.628143,287.739166 
	C223.724701,286.626495 224.896271,285.491669 223.404968,283.975220 
	C222.185028,282.734680 220.941101,280.723511 218.864868,281.930725 
	C216.034424,283.576447 212.933304,284.989380 210.944061,287.761719 
	C210.049118,289.009033 208.540176,290.478241 211.438507,292.224487 
M200.012054,284.817932 
	C200.120667,288.260590 203.012604,289.613556 206.207016,287.703156 
	C209.912933,285.486816 211.064041,281.521057 212.853638,277.986969 
	C213.539154,276.633148 213.598709,275.462158 212.248627,274.486877 
	C210.853958,273.479401 209.740005,274.064545 208.752411,275.126648 
	C205.924698,278.167847 203.119354,281.229858 200.012054,284.817932 
M199.827881,237.938828 
	C202.261566,239.003281 204.668442,239.522415 207.531754,237.597412 
	C201.637268,230.923950 196.000061,224.541779 190.362839,218.159592 
	C190.101700,218.331741 189.840546,218.503891 189.579391,218.676041 
	C192.824539,224.913330 196.069687,231.150604 199.827881,237.938828 
M181.499725,242.381439 
	C181.202835,242.503342 180.889450,242.598633 180.620346,242.765366 
	C180.550766,242.808456 180.550537,243.149643 180.635361,243.229050 
	C184.398758,246.752380 188.330078,250.112457 191.903046,253.818192 
	C194.962204,256.990967 197.670258,257.014832 201.117462,253.719818 
	C194.602524,249.799988 188.701859,245.518158 181.499725,242.381439 
M202.672928,249.177292 
	C198.035110,240.470459 198.035110,240.470459 186.567017,241.998291 
	C192.543213,245.618851 197.931580,248.883270 204.345551,252.769043 
	C203.464203,250.925186 203.182083,250.334961 202.672928,249.177292 
M200.365891,259.890411 
	C201.993195,264.357605 206.322723,266.200073 209.541534,269.072205 
	C210.778152,270.175598 212.413559,268.675690 211.930481,267.236023 
	C210.828979,263.953369 209.764343,260.344513 207.183960,258.045197 
	C205.181824,256.261139 202.964752,258.957977 200.365891,259.890411 
M223.239288,266.972321 
	C219.022293,267.480011 220.226196,269.733521 221.693085,272.195648 
	C220.696869,272.426819 219.717117,272.556732 218.810883,272.887848 
	C217.529175,273.356171 217.069382,274.401764 217.505493,275.663147 
	C217.918762,276.858459 219.004440,277.777161 220.150360,277.419739 
	C223.141510,276.486694 226.361633,275.085419 227.681274,272.335052 
	C229.100067,269.378143 225.617447,268.568939 223.239288,266.972321 
M224.517654,282.825378 
	C228.570648,282.635071 231.569626,278.385376 230.794586,273.773407 
	C228.132706,274.488403 226.292877,276.497253 224.116440,277.925507 
	C222.013123,279.305817 222.416733,280.882050 224.517654,282.825378 
M185.917923,239.582153 
	C187.388382,239.357239 188.858841,239.132339 190.700592,238.850647 
	C183.793976,236.313354 177.304886,233.929459 170.815781,231.545547 
	C175.762405,234.037811 178.948105,239.697937 185.917923,239.582153 
M229.738708,260.347473 
	C228.739029,258.943420 227.558350,258.274780 226.068680,259.641174 
	C224.974121,260.645172 223.478455,261.887665 223.958252,263.328156 
	C224.923294,266.225494 227.630371,267.110748 230.353439,267.903381 
	C231.515961,265.330231 230.995728,263.146149 229.738708,260.347473 
M208.993240,298.281464 
	C210.101135,297.273346 212.238098,297.586151 212.630859,295.581818 
	C207.521835,292.905853 206.844070,293.291412 206.129974,299.442657 
	C206.989258,299.139771 207.725876,298.880066 208.993240,298.281464 
M212.150772,262.752167 
	C212.870941,263.847168 212.896103,265.909943 215.057281,265.025635 
	C215.535950,264.829742 216.163712,263.935547 216.056885,263.545105 
	C215.397705,261.135834 213.174820,260.951721 211.120407,260.473816 
	C211.383865,261.056580 211.647324,261.639343 212.150772,262.752167 
z"/>
<path fill="#000000" opacity="1.000000" stroke="none" 
	d="
M783.582275,300.925934 
	C775.247253,300.465729 767.240662,301.823669 758.769836,299.557587 
	C769.227051,296.023712 766.725281,287.832367 766.648682,280.821777 
	C766.475830,265.003174 767.235901,249.177216 766.101807,233.360718 
	C765.758850,228.577408 764.746094,224.811951 759.358398,223.837555 
	C759.091980,223.789368 758.829285,223.436264 758.669189,223.163879 
	C758.509399,222.892029 758.480835,222.543030 758.029236,220.890030 
	C767.841492,220.553787 777.300781,220.529327 787.114990,220.922546 
	C786.779175,222.384155 786.778259,223.180237 786.553894,223.249176 
	C780.236328,225.190735 779.853760,230.086838 780.091492,235.546036 
	C780.337769,241.201950 780.275208,246.875931 780.192078,252.539719 
	C780.149048,255.470352 781.217834,256.751221 784.281006,256.716431 
	C794.111267,256.604706 803.943604,256.652618 813.775024,256.684021 
	C816.079773,256.691376 817.711975,256.139587 817.650391,253.388626 
	C817.493958,246.398346 817.457336,239.404556 817.224915,232.417099 
	C817.087830,228.295074 815.735107,224.900909 811.056396,223.952347 
	C810.215271,223.781799 809.731201,223.002487 809.904114,221.447968 
	C819.411743,221.447968 828.991882,221.447968 838.792053,221.447968 
	C838.479370,222.534622 838.452026,223.084595 838.289856,223.127701 
	C830.474915,225.205750 831.096191,231.312729 831.179443,237.417816 
	C831.365540,251.079819 831.159668,264.747559 831.385315,278.408478 
	C831.514038,286.204437 829.074707,295.258759 840.523987,298.546082 
	C840.257385,298.992126 839.990723,299.438202 839.724121,299.884247 
	C830.031677,299.884247 820.339233,299.884247 810.451477,299.884247 
	C810.664062,299.081024 810.674316,298.287109 810.926025,298.201324 
	C817.772827,295.866730 818.054199,290.441620 817.774841,284.465912 
	C817.494812,278.479645 817.577515,272.467896 817.731384,266.473236 
	C817.815491,263.193268 816.461731,262.056366 813.297607,262.088501 
	C803.800415,262.184937 794.300232,262.202942 784.804077,262.059723 
	C781.306091,262.006989 780.079468,263.407837 780.206787,266.812805 
	C780.399719,271.971832 780.269470,277.142517 780.301697,282.308075 
	C780.343018,288.928802 779.047302,296.171936 787.975708,298.174103 
	C787.521240,301.213379 785.580750,300.720276 783.582275,300.925934 
z"/>
<path fill="#000000" opacity="1.000000" stroke="none" 
	d="
M525.088623,266.884766 
	C516.826233,256.834686 508.791992,247.057922 500.139160,236.528336 
	C500.139160,244.913559 500.118622,252.428528 500.144531,259.943329 
	C500.174988,268.775635 500.194092,277.608490 500.318268,286.439697 
	C500.393982,291.824463 501.218781,296.847961 507.586090,298.542999 
	C508.082184,298.675049 508.407867,299.447205 508.829681,299.941772 
	C505.320282,302.365936 491.238708,302.608948 486.990662,300.455627 
	C487.033844,300.135895 486.986328,299.596191 487.141937,299.529358 
	C494.058289,296.557800 494.731934,290.518829 494.634094,284.176880 
	C494.382233,267.855469 495.054657,251.530563 494.190521,235.206100 
	C493.893494,229.594620 492.195496,225.535172 486.536469,223.760681 
	C486.027527,223.601105 485.706848,222.841034 485.273956,222.330612 
	C491.965576,218.354965 504.952148,220.515793 509.611847,226.216492 
	C522.582336,242.084579 535.557495,257.948853 548.535889,273.810486 
	C549.581360,275.088165 550.665527,276.334167 551.772949,277.643646 
	C553.535645,276.433746 552.825378,274.816132 552.829468,273.484406 
	C552.861877,262.818939 552.859070,252.152679 552.756958,241.487732 
	C552.684570,233.925385 554.288452,225.538834 543.539062,222.320786 
	C551.550903,220.015610 558.917114,220.508423 566.986511,221.271042 
	C566.223511,222.628464 566.034424,223.507431 565.606018,223.645920 
	C558.907288,225.811386 558.416565,231.410263 558.439819,237.002640 
	C558.518921,255.995621 558.796326,274.987762 558.991028,293.980286 
	C559.008118,295.646362 559.039551,297.316620 558.945251,298.978180 
	C558.859680,300.484772 558.674927,302.026703 556.963745,302.688507 
	C554.997009,303.449188 553.831177,302.257538 552.739502,300.912384 
	C547.489502,294.443512 542.241821,287.972778 536.989014,281.506195 
	C533.101746,276.720673 529.207764,271.940582 525.088623,266.884766 
z"/>
<path fill="#000000" opacity="1.000000" stroke="none" 
	d="
M680.197632,240.402100 
	C691.768738,220.879105 713.737061,213.873734 736.529663,222.166458 
	C745.232788,225.332947 745.238770,225.332901 745.295349,234.565018 
	C745.315430,237.843597 745.298523,241.122391 745.298523,244.246262 
	C741.623169,245.167221 741.433350,242.697052 740.741333,240.992188 
	C735.831421,228.896820 729.288269,224.074249 717.654907,224.064926 
	C706.830872,224.056259 698.250793,229.818359 694.042175,240.839188 
	C688.192078,256.158081 688.777527,271.231049 697.988831,285.197571 
	C704.415710,294.942139 713.917053,298.391968 725.323547,296.592987 
	C731.971802,295.544464 734.787170,291.799835 734.288086,285.104614 
	C734.213867,284.108704 734.203186,283.103516 734.057861,282.118164 
	C733.069702,275.415771 737.212158,266.507812 724.675171,264.747070 
	C725.221252,264.276459 725.767395,263.805817 726.313477,263.335205 
	C735.429993,263.335205 744.546509,263.335205 753.595581,263.335205 
	C753.929749,265.100739 752.949890,265.612915 752.042969,265.902832 
	C748.134949,267.152069 747.290039,270.141388 747.315674,273.746918 
	C747.354736,279.240692 747.276123,284.735626 747.351562,290.228668 
	C747.387451,292.843109 746.421448,294.587769 744.009155,295.779724 
	C731.830505,301.797485 719.227600,304.253235 705.799561,300.831360 
	C683.261230,295.087891 670.507080,271.607880 677.327576,248.242783 
	C678.071411,245.694611 679.113342,243.233444 680.197632,240.402100 
z"/>
<path fill="#000000" opacity="1.000000" stroke="none" 
	d="
M589.499451,228.625366 
	C585.661987,235.953598 586.853516,241.339005 593.115356,245.883545 
	C597.327759,248.940720 602.097107,250.925110 606.908813,252.813217 
	C612.027405,254.821747 617.096436,256.957947 621.713989,259.982147 
	C629.362793,264.991638 632.943176,272.119202 632.043945,281.221863 
	C631.097351,290.803375 625.739746,297.255951 616.762146,300.312195 
	C603.598206,304.793640 590.838867,302.617035 578.495300,296.952087 
	C577.342102,296.422821 575.776978,295.453064 575.559937,294.440002 
	C574.185120,288.022217 574.279541,281.573547 575.437744,274.703369 
	C579.180237,276.452454 579.168213,279.648682 580.274597,282.056244 
	C585.335938,293.070068 593.413635,298.244537 605.070190,297.680481 
	C612.085938,297.340973 617.731750,293.195618 619.338684,287.203979 
	C621.043762,280.846313 618.682190,274.925476 612.056763,271.357880 
	C604.598511,267.341797 596.698853,264.154327 589.137573,260.317963 
	C581.634521,256.511230 576.142883,250.986954 575.696289,241.940842 
	C575.087830,229.613571 584.337708,220.130692 598.321106,218.854095 
	C606.777405,218.082092 614.870667,219.784241 622.715576,222.900009 
	C625.142700,223.863998 626.412537,225.368240 626.387756,228.151489 
	C626.358215,231.470291 626.763733,234.791275 626.922180,238.114120 
	C627.005554,239.862259 627.469055,241.780701 625.375122,243.081665 
	C622.221619,241.897247 622.447021,238.779449 621.515747,236.505005 
	C616.137512,223.370209 600.313354,219.251877 589.499451,228.625366 
z"/>
<path fill="#000000" opacity="1.000000" stroke="none" 
	d="
M870.076660,242.813004 
	C870.021545,238.007050 869.894836,233.679413 869.943481,229.353760 
	C869.978333,226.262741 868.601013,225.398666 865.612366,225.578613 
	C855.096436,226.211823 851.597351,228.778046 848.284302,238.835022 
	C847.823425,240.234161 847.725586,242.117783 845.755615,241.981522 
	C843.318542,241.812927 843.740601,239.650269 843.811157,238.111984 
	C844.031799,233.298935 844.450195,228.495285 844.752625,223.685516 
	C844.930176,220.862747 846.921692,220.714920 849.015686,220.713745 
	C867.656982,220.703278 886.298340,220.723969 904.939514,220.670227 
	C907.594177,220.662567 908.980774,221.715714 909.172974,224.387024 
	C909.506653,229.026321 909.946838,233.658676 910.221375,238.301086 
	C910.304321,239.702133 910.677124,241.623169 908.588440,241.917023 
	C906.562012,242.202148 906.382141,240.276321 905.876038,238.934952 
	C902.112366,228.960083 897.507568,225.426590 888.573914,225.355713 
	C885.512878,225.331436 883.948975,226.171448 883.980896,229.559784 
	C884.166260,249.198471 884.199646,268.838531 884.361633,288.477509 
	C884.394653,292.476105 885.952209,295.615540 890.251282,296.638580 
	C891.434570,296.920166 892.497253,297.293823 892.764343,298.677765 
	C890.540588,300.788727 866.828430,301.284454 862.886230,299.260284 
	C863.036987,298.817413 863.108521,298.018219 863.358887,297.957611 
	C870.639465,296.195160 870.872559,290.720184 870.726746,284.715240 
	C870.391541,270.910645 871.087769,257.088593 870.076660,242.813004 
z"/>
<path fill="#000000" opacity="1.000000" stroke="none" 
	d="
M471.833069,302.026337 
	C464.281952,301.417969 457.043274,303.027008 449.961456,301.167480 
	C450.163116,300.134674 450.150635,299.582367 450.297180,299.536346 
	C457.377808,297.312347 457.773285,291.727631 457.642029,285.599396 
	C457.285767,268.963013 457.054688,252.322830 456.942688,235.683014 
	C456.905609,230.175308 456.347809,225.277649 449.912903,223.598511 
	C449.601868,223.517334 449.458557,222.793350 448.462952,220.883942 
	C458.903625,220.637680 468.516632,220.602737 477.837341,220.897827 
	C478.482941,222.786026 478.066498,223.688812 477.260071,223.855209 
	C471.487488,225.046356 470.850677,229.230652 470.894867,234.085709 
	C471.043335,250.396545 471.029602,266.708832 471.168457,283.019806 
	C471.226257,289.807922 469.462708,297.519135 479.726868,299.654724 
	C477.238281,302.687225 474.618011,301.816345 471.833069,302.026337 
z"/>
<path fill="#000000" opacity="1.000000" stroke="none" 
	d="
M649.106873,301.126648 
	C646.085022,300.911835 643.341797,301.857086 641.115723,300.151245 
	C641.115723,299.495636 641.027832,298.915985 641.128235,298.881287 
	C648.487732,296.337433 648.126465,290.321899 647.967651,284.208344 
	C647.764404,276.386261 647.883118,268.556091 647.841309,260.729523 
	C647.812500,255.325607 649.270325,249.137711 640.029968,248.463425 
	C643.899475,244.544678 648.139465,244.708649 651.651367,243.329056 
	C661.217896,239.571075 661.283081,239.722137 661.303894,249.916077 
	C661.325012,260.240662 661.278137,270.565735 661.365662,280.889709 
	C661.426331,288.048370 659.880798,295.964752 669.710938,299.337067 
	C662.846497,302.062531 656.118469,300.557678 649.106873,301.126648 
z"/>
<path fill="#000000" opacity="1.000000" stroke="none" 
	d="
M809.872620,330.971710 
	C811.249084,328.077820 812.394653,325.484558 813.730042,322.992950 
	C814.947144,320.722168 817.077698,320.122101 818.412231,322.388824 
	C821.140503,327.022766 823.448303,331.928345 825.031006,336.940002 
	C823.038330,338.388062 821.958313,337.597809 821.069214,336.538940 
	C818.188171,333.107788 815.182922,333.508331 812.059814,336.133606 
	C809.761353,338.065643 800.433289,339.033173 797.803223,337.653656 
	C796.440674,336.938904 795.972656,335.734009 795.929443,334.364594 
	C795.829895,331.204926 795.762878,328.040405 795.831238,324.881073 
	C795.862427,323.436523 795.857910,321.544342 798.025391,321.683594 
	C800.037659,321.812897 799.997437,323.631989 800.100891,325.108978 
	C800.193787,326.435303 800.036804,327.783997 800.187256,329.100281 
	C800.413635,331.079651 799.258057,333.893494 802.347778,334.455994 
	C805.304932,334.994324 808.493652,335.223206 809.872620,330.971710 
z"/>
<path fill="#000000" opacity="1.000000" stroke="none" 
	d="
M888.062073,335.401001 
	C887.878540,331.493652 887.779602,328.013153 887.768372,324.532318 
	C887.764160,323.235504 887.617737,321.666412 889.198425,321.146057 
	C890.990967,320.556000 891.816956,322.006470 892.742493,323.200043 
	C894.229492,325.117798 894.810669,327.708801 897.057251,329.179749 
	C899.232117,327.826111 899.873657,325.490845 901.119751,323.601959 
	C901.922302,322.385406 902.521301,320.712158 904.388489,321.066193 
	C906.346863,321.437561 906.194458,323.200409 906.221436,324.660126 
	C906.279724,327.810455 906.281494,330.963135 906.229736,334.113586 
	C906.205322,335.597137 906.244385,337.368347 904.066528,337.286072 
	C902.285950,337.218781 902.197632,335.646088 902.097717,334.333405 
	C901.998108,333.024506 902.075928,331.702118 902.075928,329.976624 
	C899.799255,331.583405 899.782593,334.737976 896.946533,335.592865 
	C894.852112,335.205994 894.704590,332.642334 893.202209,331.537628 
	C890.395203,331.723907 894.386230,339.664032 888.062073,335.401001 
z"/>
<path fill="#000000" opacity="1.000000" stroke="none" 
	d="
M725.936829,322.226166 
	C731.304626,321.902405 731.462891,327.646912 735.326599,329.275940 
	C736.372070,328.171844 735.734558,326.616943 735.948486,325.263855 
	C736.154114,323.963013 736.048035,322.327850 737.922363,322.415039 
	C739.619995,322.494019 739.911865,324.072845 739.957703,325.376373 
	C740.068481,328.528259 740.003479,331.686798 739.985413,334.842529 
	C739.978577,336.042694 739.796082,337.258026 738.514709,337.746643 
	C737.243286,338.231476 736.242798,337.495972 735.457581,336.594482 
	C733.647034,334.515747 731.898499,332.383026 729.990295,330.112091 
	C728.609497,332.178192 729.442383,334.061829 729.090454,335.788544 
	C728.873962,336.850616 728.440796,337.739960 727.289917,337.857605 
	C725.831909,338.006653 725.042725,337.027771 725.076111,335.756683 
	C725.192444,331.321594 723.953369,326.828766 725.936829,322.226166 
z"/>
<path fill="#000000" opacity="1.000000" stroke="none" 
	d="
M869.075745,332.830994 
	C865.534729,337.682648 861.613770,339.169159 857.409546,337.334473 
	C853.687500,335.710236 851.736816,332.733765 852.007996,328.664551 
	C852.365479,323.300323 857.079834,319.912750 862.574951,320.838531 
	C867.952393,321.744476 870.660828,326.474701 869.075745,332.830994 
M857.664001,326.317871 
	C855.954041,328.811646 855.479248,331.293671 858.373901,333.183350 
	C860.378357,334.491943 862.549927,334.241730 864.268433,332.484894 
	C866.026611,330.687439 866.075806,328.586548 864.557068,326.640564 
	C862.764587,324.343903 860.597595,323.737061 857.664001,326.317871 
z"/>
<path fill="#000000" opacity="1.000000" stroke="none" 
	d="
M612.797607,331.903442 
	C613.313171,328.471375 611.042175,324.095917 614.215576,322.787201 
	C617.718079,321.342773 618.698120,326.300232 620.995300,328.202972 
	C621.732788,328.813812 622.299072,329.631287 623.468018,330.942383 
	C623.602661,328.324463 623.689636,326.419464 623.802673,324.515991 
	C623.866333,323.444092 624.262024,322.500275 625.422302,322.321655 
	C626.605957,322.139404 627.319946,322.926025 627.511414,323.985931 
	C628.253784,328.096405 628.483337,332.314056 627.576721,336.339600 
	C626.849365,339.569397 624.604980,338.232727 623.138855,336.687073 
	C621.130615,334.569855 619.367432,332.220245 617.386230,329.834106 
	C616.208618,331.588165 617.150391,333.056061 616.974060,334.466919 
	C616.791626,335.926270 617.053955,337.774780 615.059265,337.979218 
	C612.889099,338.201599 612.976624,336.317871 612.838501,334.855652 
	C612.760742,334.032440 612.805786,333.197601 612.797607,331.903442 
z"/>
<path fill="#000000" opacity="1.000000" stroke="none" 
	d="
M882.504089,337.298462 
	C882.055481,337.080780 881.895447,337.009674 881.784546,336.892242 
	C877.354736,332.205963 877.355347,332.205414 873.961365,337.206085 
	C872.114136,337.252350 871.874939,335.927002 871.772949,334.554169 
	C871.613586,332.409851 871.478149,330.262390 871.398743,328.113831 
	C871.305420,325.591370 870.031006,322.629578 873.067505,321.009888 
	C875.885681,319.506714 882.909485,321.195526 884.623291,323.543427 
	C885.624878,324.915680 886.337402,326.489166 885.691162,328.186737 
	C884.678528,330.846497 882.674133,333.126007 885.110718,336.341644 
	C886.075317,337.614746 883.907043,337.577240 882.504089,337.298462 
M878.928650,329.478088 
	C880.352417,328.886505 881.732117,328.157379 880.968018,326.293213 
	C880.427673,324.975067 879.141418,324.509796 877.766174,324.504211 
	C876.421692,324.498718 875.666748,325.267975 875.517273,326.570770 
	C875.286072,328.586609 876.146301,329.665253 878.928650,329.478088 
z"/>
<path fill="#000000" opacity="1.000000" stroke="none" 
	d="
M759.794861,337.160095 
	C758.263306,332.922089 759.041931,328.917816 758.986023,324.955200 
	C758.959839,323.102051 759.816284,321.766937 761.908936,321.615936 
	C765.153015,321.381805 768.652649,319.819214 771.342041,323.124146 
	C769.564026,326.582703 765.601624,323.638336 763.751770,326.301941 
	C764.833679,329.229431 768.889709,326.316650 769.792847,329.529572 
	C769.015503,332.940735 764.520386,329.759949 763.452637,333.147034 
	C764.941345,336.536346 769.766418,332.889343 771.513611,337.105743 
	C767.654114,338.810516 763.913879,338.508850 759.794861,337.160095 
z"/>
<path fill="#000000" opacity="1.000000" stroke="none" 
	d="
M468.277039,333.809784 
	C468.858917,335.059143 469.354095,335.931702 469.719757,336.855530 
	C469.890900,337.287994 469.811829,337.819458 469.915527,339.291504 
	C464.528961,337.356232 459.136383,332.535706 453.780182,339.970520 
	C454.810516,333.506622 456.794800,328.541931 459.668304,324.053802 
	C460.937897,322.070801 463.014191,322.971466 464.042419,324.912598 
	C465.519196,327.700500 466.782745,330.601349 468.277039,333.809784 
z"/>
<path fill="#000000" opacity="1.000000" stroke="none" 
	d="
M587.043274,321.962341 
	C589.437927,322.206360 591.513123,322.170471 593.324097,322.844513 
	C596.823303,324.146912 598.425476,327.075806 596.690186,330.377258 
	C595.259949,333.098236 595.461365,335.291290 596.758484,337.521210 
	C595.611633,339.093018 594.233337,338.793915 593.609558,337.892548 
	C590.802429,333.836548 588.094666,333.095245 585.356018,338.056122 
	C582.309814,332.524567 583.107788,324.033752 587.043274,321.962341 
M589.528931,330.731476 
	C591.300598,330.772736 592.864502,330.290070 593.246948,328.367462 
	C593.515808,327.016205 592.374207,326.400604 591.251404,326.006805 
	C589.995544,325.566315 588.518372,325.112488 587.776550,326.544647 
	C587.017761,328.009521 586.794434,329.708466 589.528931,330.731476 
z"/>
<path fill="#000000" opacity="1.000000" stroke="none" 
	d="
M780.079468,323.600220 
	C783.814697,320.154419 790.190308,320.517670 792.947937,323.900299 
	C795.566956,327.112732 794.112244,331.951080 789.710938,332.754913 
	C786.422913,333.355438 784.095886,334.625549 782.074036,338.185944 
	C778.630066,333.302460 780.142883,328.519775 780.079468,323.600220 
M785.808716,325.290924 
	C783.830322,326.612732 783.564026,328.227264 785.671814,329.425934 
	C786.990540,330.175903 788.875854,329.833405 789.380798,328.110382 
	C790.037292,325.870331 788.366943,325.303009 785.808716,325.290924 
z"/>
<path fill="#000000" opacity="1.000000" stroke="none" 
	d="
M718.797607,331.335022 
	C717.026978,331.543243 715.320068,330.907379 714.483521,333.096771 
	C715.992249,336.757996 721.424377,332.687561 723.103088,337.515686 
	C718.705078,338.338776 714.619446,339.466309 710.806641,336.886963 
	C709.336731,335.892578 709.325684,323.775024 710.731750,322.888611 
	C714.294189,320.642578 718.091309,321.405670 722.145630,322.553864 
	C720.889465,326.869446 716.373657,323.740326 714.734924,326.371490 
	C715.845215,328.695435 718.027222,327.505280 719.613037,328.058746 
	C720.467590,328.357025 721.198547,328.778046 721.229126,329.692383 
	C721.273743,331.022736 720.203247,331.196808 718.797607,331.335022 
z"/>
<path fill="#000000" opacity="1.000000" stroke="none" 
	d="
M532.183960,325.584503 
	C535.621460,320.968781 544.112061,321.820190 545.833069,326.634003 
	C547.044983,330.023773 545.605957,332.605042 542.275085,333.724091 
	C539.609558,334.619659 536.818115,334.322693 535.263428,337.913635 
	C534.436951,339.822754 532.372803,337.816284 532.251770,335.978302 
	C532.033752,332.668304 532.129944,329.337585 532.183960,325.584503 
M536.388123,328.482391 
	C536.865356,331.517090 538.821167,331.088013 540.692139,330.124969 
	C541.803528,329.552917 542.223389,328.069672 541.261841,327.222107 
	C539.664429,325.814056 537.811035,325.443146 536.388123,328.482391 
z"/>
<path fill="#000000" opacity="1.000000" stroke="none" 
	d="
M519.553772,338.240570 
	C516.791199,339.361877 516.451233,337.753845 516.360352,335.919708 
	C516.262390,333.941650 516.191956,331.961609 516.147034,329.981598 
	C515.990906,323.102997 517.302429,321.895996 524.104675,322.705750 
	C527.584412,323.119965 530.226501,324.672668 530.229492,328.540131 
	C530.232300,332.118774 527.854309,334.069824 524.530640,334.156799 
	C521.679810,334.231384 520.259155,335.306763 519.553772,338.240570 
M521.216553,330.383209 
	C523.409790,331.074463 525.648376,331.366669 526.177612,328.436951 
	C526.452271,326.916595 524.916565,326.347382 523.502502,326.261871 
	C520.822632,326.099792 519.916321,327.329132 521.216553,330.383209 
z"/>
<path fill="#000000" opacity="1.000000" stroke="none" 
	d="
M569.703369,338.089081 
	C568.142456,334.940002 568.649841,331.909485 568.749390,328.976837 
	C568.825989,326.721558 567.338074,323.417572 570.629517,322.512177 
	C573.786438,321.643829 577.356262,320.903198 580.463196,323.624054 
	C578.810059,327.197784 573.994324,323.544739 572.625305,327.194611 
	C574.056030,330.232758 578.118591,327.258545 579.351318,330.467804 
	C578.225464,333.784973 574.216492,330.887573 572.698303,333.483307 
	C573.177246,337.533966 578.157593,334.132385 579.178223,337.631927 
	C576.321289,339.945618 573.190796,339.221527 569.703369,338.089081 
z"/>
<path fill="#000000" opacity="1.000000" stroke="none" 
	d="
M842.384766,337.087585 
	C835.226135,334.757233 840.114441,329.001648 838.846741,324.885620 
	C838.124084,322.539215 839.592102,320.777405 842.429688,320.831879 
	C844.413513,320.869995 846.399292,320.787506 848.383789,320.805786 
	C850.166626,320.822235 851.774597,321.094421 851.428528,323.558350 
	C849.255798,325.745728 845.367310,322.670135 843.560181,325.916901 
	C844.024658,328.258850 845.839355,327.605682 847.166748,327.867523 
	C848.477600,328.126068 849.977722,328.218842 849.964294,330.006866 
	C849.953003,331.523132 848.576294,331.919037 847.477783,331.846375 
	C843.787842,331.602142 843.283875,334.223053 842.384766,337.087585 
z"/>
<path fill="#000000" opacity="1.000000" stroke="none" 
	d="
M701.735718,321.509979 
	C704.291992,321.804657 706.364563,322.201965 706.782959,325.428955 
	C703.084778,326.378876 697.735046,322.977783 696.415039,329.200745 
	C696.005493,331.131622 696.456482,332.854218 698.199890,334.031891 
	C701.309570,336.132538 703.351318,333.346649 705.923828,332.028595 
	C708.322327,335.267853 706.979126,337.132996 703.928406,337.953491 
	C700.603638,338.847717 697.200928,338.666656 694.644592,335.914581 
	C692.387878,333.485046 691.067566,330.571075 692.364502,327.226898 
	C693.925842,323.201050 697.031067,321.317047 701.735718,321.509979 
z"/>
<path fill="#000000" opacity="1.000000" stroke="none" 
	d="
M751.755249,338.235535 
	C746.814636,338.416107 743.643860,336.370697 742.146301,332.130341 
	C740.907471,328.622864 742.035034,325.519714 744.812805,323.190277 
	C747.969116,320.543335 751.489502,320.622986 755.035706,322.466309 
	C755.788208,322.857452 756.374329,323.448975 756.226685,325.021606 
	C753.221619,326.750366 746.332397,322.488098 746.255920,329.695984 
	C746.173523,337.456879 753.222839,332.825653 756.657654,334.205841 
	C756.144409,337.513153 754.094971,337.784271 751.755249,338.235535 
z"/>
<path fill="#000000" opacity="1.000000" stroke="none" 
	d="
M487.018616,335.551086 
	C489.214844,335.619751 491.273438,336.789490 492.951569,334.487854 
	C490.261627,331.580902 483.589905,332.954834 484.247833,326.704010 
	C484.451843,324.765808 485.878204,323.284637 487.815521,323.002014 
	C490.602570,322.595398 493.711823,321.609711 495.723969,324.880615 
	C494.038849,327.951477 490.339386,324.629547 488.667511,327.428558 
	C489.535522,329.795715 491.908234,329.296814 493.603821,330.011902 
	C495.395020,330.767273 496.804352,331.838348 497.010590,333.887756 
	C497.218597,335.954895 496.009918,337.406830 494.390808,338.347351 
	C491.792816,339.856506 488.868378,339.797241 486.268616,338.643158 
	C484.293427,337.766327 483.043274,336.099945 487.018616,335.551086 
z"/>
<path fill="#000000" opacity="1.000000" stroke="none" 
	d="
M498.731293,330.753479 
	C499.118164,327.879395 497.584198,324.992432 500.221283,323.079956 
	C502.791565,323.632446 502.209167,325.576355 502.389954,327.119843 
	C502.602264,328.932709 502.669067,330.767548 502.973114,332.563354 
	C503.275024,334.346527 504.181519,335.744995 506.268280,335.603058 
	C508.466492,335.453552 509.325012,334.022125 509.650787,331.968384 
	C510.113770,329.049622 508.503967,325.710876 511.181000,323.079285 
	C513.468628,325.501709 514.216492,333.131561 512.526123,336.013092 
	C510.756744,339.029388 507.851593,339.695374 504.725983,339.171844 
	C500.341431,338.437469 498.858795,335.272827 498.731293,330.753479 
z"/>
<path fill="#000000" opacity="1.000000" stroke="none" 
	d="
M648.583496,327.429962 
	C649.408691,328.371399 650.159241,328.998779 650.938171,329.649872 
	C651.209534,331.560333 647.987244,331.464050 648.747437,333.859894 
	C650.579834,336.284821 654.646851,333.616486 656.528076,336.623169 
	C653.397644,338.745392 646.486450,339.012787 645.144714,337.115631 
	C644.114929,335.659637 644.259521,323.428192 645.317505,322.498413 
	C646.951538,321.062439 654.014465,321.757507 656.264343,323.610260 
	C654.736633,327.120911 649.799011,323.152893 648.583496,327.429962 
z"/>
<path fill="#000000" opacity="1.000000" stroke="none" 
	d="
M825.993774,324.920898 
	C822.746643,323.679779 822.464111,321.885071 825.546936,321.160461 
	C828.716125,320.415558 832.156555,320.784210 835.479004,320.754181 
	C836.599243,320.744080 837.302795,321.501953 837.519836,322.592896 
	C837.802063,324.011322 837.090698,324.786316 835.753174,325.085876 
	C834.813232,325.296356 833.872192,325.502228 832.839661,325.730530 
	C832.839661,328.778107 832.930786,331.568268 832.798889,334.347809 
	C832.738220,335.627045 832.518311,337.236694 830.716064,337.217865 
	C828.899536,337.198883 828.822083,335.638123 828.733643,334.307739 
	C828.601257,332.316864 828.536438,330.320587 828.485657,328.325531 
	C828.445801,326.756958 828.356567,325.259888 825.993774,324.920898 
z"/>
<path fill="#000000" opacity="1.000000" stroke="none" 
	d="
M633.519592,326.862000 
	C632.553101,324.841431 630.121643,325.790131 629.336426,324.040894 
	C632.011658,320.984955 639.049133,320.765198 642.627319,323.590454 
	C638.362427,327.195557 638.391968,327.196960 638.093750,333.440826 
	C638.011841,335.155090 638.508484,337.657043 635.892517,337.625153 
	C633.731079,337.598846 633.969910,335.308777 633.868958,333.708313 
	C633.733398,331.558075 633.711670,329.400665 633.519592,326.862000 
z"/>
<path fill="#000000" opacity="1.000000" stroke="none" 
	d="
M161.441742,347.400818 
	C164.490005,345.557953 166.858139,346.263092 168.718307,348.603271 
	C170.006363,350.223694 170.561234,352.177429 169.351654,354.126740 
	C167.676620,356.826050 165.236084,358.422852 162.357635,356.359894 
	C159.214417,354.107178 157.817993,351.049744 161.441742,347.400818 
z"/>
<path fill="#000000" opacity="1.000000" stroke="none" 
	d="
M550.198975,323.018982 
	C553.427063,324.690125 552.251404,327.482849 552.199036,329.731964 
	C552.109497,333.577423 552.574768,336.374420 557.416016,335.804108 
	C558.404297,335.687714 559.338501,336.111267 560.015015,337.492645 
	C557.099060,340.427277 553.566956,339.301971 550.435364,338.758667 
	C547.662354,338.277527 547.987671,335.470795 548.117920,333.405487 
	C548.337952,329.916473 546.663025,326.081299 550.198975,323.018982 
z"/>
<path fill="#000000" opacity="1.000000" stroke="none" 
	d="
M659.244019,335.788696 
	C659.146790,332.219666 659.086365,329.073883 659.092957,325.928253 
	C659.096008,324.462067 658.875854,322.547607 660.842285,322.344604 
	C662.820312,322.140411 663.038513,323.951019 663.191772,325.481628 
	C663.241333,325.976440 663.290894,326.480957 663.250183,326.973602 
	C662.867004,331.611328 663.118469,335.745361 669.518555,335.279602 
	C669.767578,335.261475 670.107483,335.595978 670.292297,335.848633 
	C670.472229,336.094482 670.507202,336.446442 670.843567,337.488007 
	C666.765625,338.026703 662.887939,340.223846 659.244019,335.788696 
z"/>
<path fill="#000000" opacity="1.000000" stroke="none" 
	d="
M158.566803,192.686798 
	C162.709503,192.221100 165.132004,193.766357 165.188171,197.713287 
	C165.227798,200.498993 163.503433,202.550491 160.750229,202.873184 
	C157.689911,203.231857 155.729141,201.323944 155.125366,198.409760 
	C154.589813,195.824966 155.905212,193.963974 158.566803,192.686798 
z"/>
<path fill="#000000" opacity="1.000000" stroke="none" 
	d="
M154.154572,256.937927 
	C155.827118,260.868256 153.565506,262.620819 150.793549,263.701630 
	C148.630997,264.544861 146.893509,263.263794 145.910645,261.307709 
	C144.666870,258.832336 145.607147,256.673798 147.584473,255.133453 
	C150.155075,253.130920 152.219437,254.453125 154.154572,256.937927 
z"/>
<path fill="#000000" opacity="1.000000" stroke="none" 
	d="
M672.688843,333.863586 
	C672.963867,329.992950 671.994995,326.474152 673.466797,323.237854 
	C675.572144,322.775330 675.981934,324.099121 676.119690,325.462769 
	C676.385010,328.089844 676.077148,330.855499 676.796570,333.334534 
	C677.595032,336.085571 681.675537,333.865509 682.954285,336.532501 
	C678.580139,339.881561 673.746033,338.836914 672.688843,333.863586 
z"/>
<path fill="#000000" opacity="1.000000" stroke="none" 
	d="
M609.662109,336.437469 
	C608.671021,338.341919 607.562439,338.566803 606.432739,337.221649 
	C604.821289,335.302979 605.825806,324.609283 608.249451,321.984558 
	C610.289124,326.748871 609.930420,331.397095 609.662109,336.437469 
z"/>
<path fill="#000000" opacity="1.000000" stroke="none" 
	d="
M689.968994,335.358215 
	C688.889099,338.334717 686.938660,338.453156 686.375183,336.049866 
	C685.401978,331.898773 684.947632,327.471466 687.409973,322.576050 
	C691.636597,326.608276 689.580139,331.045166 689.968994,335.358215 
z"/>
<path fill="#000000" opacity="1.000000" stroke="none" 
	d="
M475.351807,328.179138 
	C475.349884,332.019440 475.349884,335.389862 475.349884,338.520966 
	C472.111023,339.150421 471.786591,337.661163 471.736511,336.104492 
	C471.646515,333.306580 471.574585,330.499237 471.710907,327.706360 
	C471.790802,326.069672 470.940948,323.354553 473.513397,323.357391 
	C476.079498,323.360260 475.046722,326.082214 475.351807,328.179138 
z"/>
<path fill="#000000" opacity="1.000000" stroke="none" 
	d="
M561.707092,335.549927 
	C561.704102,331.966888 561.677002,328.829010 561.745728,325.693207 
	C561.770752,324.550201 561.879822,323.194336 563.415344,323.105560 
	C565.007812,323.013489 565.204041,324.344269 565.229736,325.510803 
	C565.306213,328.976654 565.315918,332.444519 565.307617,335.911469 
	C565.304810,337.100830 565.138245,338.406555 563.593994,338.422455 
	C562.114441,338.437714 561.813721,337.221985 561.707092,335.549927 
z"/>
<path fill="#000000" opacity="1.000000" stroke="none" 
	d="
M141.912231,218.934174 
	C139.003784,218.090607 138.254425,216.263992 139.018936,213.902710 
	C139.537048,212.302444 141.009705,211.839478 142.604416,211.906906 
	C144.262238,211.976990 145.559464,212.779526 145.808578,214.417999 
	C146.201721,217.003723 144.596405,218.300247 141.912231,218.934174 
z"/>
<path fill="#000000" opacity="1.000000" stroke="none" 
	d="
M138.225021,276.455566 
	C137.875107,274.005493 138.478149,272.453003 140.852478,272.295593 
	C142.252029,272.202820 143.521255,272.705383 144.130508,274.059387 
	C144.851715,275.662201 144.161880,277.007233 142.882263,277.964172 
	C140.971939,279.392761 139.508255,278.571686 138.225021,276.455566 
z"/>
<path fill="#000000" opacity="1.000000" stroke="none" 
	d="
M147.963898,301.130066 
	C149.941544,301.875458 151.605164,302.453705 153.937195,303.264252 
	C151.553772,304.083374 149.815323,304.660217 148.091980,305.279114 
	C146.487167,305.855438 145.205154,305.251038 144.104202,304.170837 
	C143.350311,303.431122 143.042648,302.451202 143.695465,301.515533 
	C144.775803,299.967163 146.226959,300.415466 147.963898,301.130066 
z"/>
<path fill="#000000" opacity="1.000000" stroke="none" 
	d="
M334.459167,280.386353 
	C332.170502,278.820740 330.445770,277.169037 328.187378,274.005157 
	C332.918457,276.395325 335.833832,278.702850 338.257996,281.905640 
	C336.382935,282.757538 335.836975,281.001740 334.459167,280.386353 
z"/>
</svg>